<?xml version="1.0" standalone="no"?>
<!DOCTYPE svg PUBLIC "-//W3C//DTD SVG 20010904//EN"
 "http://www.w3.org/TR/2001/REC-SVG-20010904/DTD/svg10.dtd">
<svg version="1.0" xmlns="http://www.w3.org/2000/svg"
 width="1600.000000pt" height="1600.000000pt" viewBox="0 0 1600.000000 1600.000000"
 preserveAspectRatio="xMidYMid meet">
<metadata>
Created by potrace 1.14, written by Peter Selinger 2001-2017
</metadata>
<g transform="translate(0.000000,1600.000000) scale(0.100000,-0.100000)"
fill="#000000" stroke="none">
<path d="M7287 14827 c-3 -7 6 -40 20 -72 14 -33 27 -73 29 -90 2 -16 8 -50
15 -75 6 -25 13 -56 15 -69 3 -13 9 -32 15 -43 5 -10 7 -18 4 -18 -3 0 0 -10
7 -22 7 -13 13 -25 14 -28 8 -28 30 -70 36 -70 4 0 8 -5 8 -12 0 -31 189 -251
240 -278 22 -12 22 -37 0 -32 -7 2 -72 4 -144 4 -138 1 -217 -6 -284 -26 -9
-3 -31 -8 -49 -11 -18 -3 -43 -9 -57 -15 -15 -5 -26 -7 -26 -5 0 3 -16 -2 -36
-10 -41 -17 -208 -64 -251 -70 -15 -2 -39 -6 -53 -9 -49 -11 -75 -16 -105 -20
-16 -3 -52 -8 -80 -13 -27 -4 -129 -7 -225 -6 -204 1 -239 6 -370 44 -36 10
-67 18 -70 18 -3 -1 -23 6 -45 14 -43 16 -116 35 -152 40 -12 2 -25 6 -29 9
-3 4 -17 2 -31 -3 -14 -5 -29 -7 -34 -3 -5 3 -9 1 -9 -5 0 -5 25 -18 55 -27
40 -13 67 -30 99 -63 59 -63 103 -102 156 -137 48 -33 231 -114 255 -114 8 0
15 -4 15 -10 0 -5 6 -10 13 -10 7 0 17 -8 24 -18 14 -23 -7 -72 -36 -87 -11
-6 -45 -23 -76 -38 -30 -15 -78 -41 -105 -57 -28 -16 -50 -27 -50 -25 0 2 -23
-9 -50 -25 -28 -17 -53 -30 -56 -30 -2 0 -22 -11 -44 -25 -22 -14 -40 -23 -40
-20 0 3 -10 -1 -22 -9 -39 -25 -131 -75 -180 -97 -27 -12 -48 -25 -48 -30 0
-5 -4 -9 -9 -9 -5 0 -26 -8 -47 -17 -22 -9 -41 -17 -44 -18 -3 -1 -26 -11 -51
-23 -26 -12 -72 -31 -104 -43 -31 -12 -65 -29 -74 -38 -18 -18 -16 -51 4 -51
7 0 30 -8 51 -17 22 -9 41 -17 44 -18 3 0 28 -8 55 -17 76 -26 129 -32 254
-30 71 1 119 -2 128 -9 7 -6 13 -8 13 -5 0 4 9 2 20 -4 11 -6 20 -17 20 -25 0
-23 -74 -66 -122 -72 -94 -12 -293 -90 -305 -119 -3 -7 -10 -14 -17 -14 -13 0
-58 -49 -94 -102 -34 -52 -21 -66 63 -66 36 0 67 4 70 8 2 4 34 8 70 9 72 2
119 -20 122 -57 1 -17 -33 -44 -59 -46 -9 -1 -229 -147 -246 -163 -7 -7 -17
-13 -20 -13 -4 0 -22 -13 -40 -29 -17 -17 -40 -36 -50 -43 -37 -27 -182 -230
-182 -255 0 -6 -7 -16 -15 -23 -9 -7 -13 -15 -11 -18 3 -2 -2 -19 -11 -36 -10
-17 -16 -34 -15 -38 1 -5 -3 -8 -10 -8 -6 0 -9 -3 -5 -6 3 -3 -19 -52 -48
-108 -59 -111 -118 -276 -132 -373 -11 -72 -4 -94 24 -73 15 12 16 12 6 0 -7
-8 -13 -19 -13 -24 0 -6 7 0 16 12 10 14 22 21 31 17 13 -4 14 -3 4 9 -10 12
-8 14 13 12 14 -2 27 3 30 10 3 8 13 14 21 14 12 0 15 6 10 23 -4 13 -3 17 2
10 11 -15 44 -7 115 26 26 13 53 24 60 25 7 2 26 8 42 15 54 22 57 -8 12 -164
-14 -49 -29 -110 -33 -135 -8 -52 -9 -263 -1 -300 3 -14 10 -43 14 -65 4 -22
9 -42 9 -45 1 -3 5 -20 9 -38 4 -19 9 -43 11 -55 7 -45 15 -71 25 -81 16 -16
12 -49 -15 -133 -26 -79 -54 -188 -60 -233 -2 -14 -6 -35 -9 -48 -3 -12 -6
-47 -7 -77 -1 -30 -5 -55 -9 -55 -3 0 -5 -12 -5 -26 1 -15 -4 -59 -10 -98 -35
-203 -40 -522 -11 -626 10 -36 19 -79 21 -97 2 -30 0 -32 -44 -43 -43 -11
-121 -70 -121 -93 0 -4 -11 -23 -25 -41 -14 -18 -25 -38 -25 -44 0 -7 -4 -12
-10 -12 -5 0 -10 -5 -10 -11 0 -6 -9 -23 -20 -38 -71 -100 -161 -321 -176
-432 -3 -24 -7 -46 -7 -49 -2 -8 14 -192 19 -220 2 -14 8 -47 14 -74 5 -27 8
-52 5 -54 -3 -3 -1 -10 4 -16 5 -6 12 -27 15 -46 3 -19 10 -50 15 -68 5 -18
10 -35 10 -37 -2 -35 35 -186 61 -250 43 -108 83 -176 130 -222 41 -40 46 -69
16 -85 -28 -16 -38 -18 -126 -23 -105 -7 -232 -20 -305 -31 -22 -3 -53 -7 -70
-9 -16 -2 -55 -6 -85 -10 -56 -6 -91 -9 -237 -20 -46 -3 -93 -8 -105 -11 -13
-2 -39 -7 -58 -11 -19 -4 -37 -8 -40 -8 -3 -1 -14 -4 -25 -7 -11 -4 -37 -9
-59 -13 -21 -3 -41 -7 -45 -10 -4 -2 -30 -7 -57 -10 -27 -4 -57 -9 -66 -11
-10 -3 -30 -8 -45 -11 -39 -7 -41 -7 -108 -28 -33 -10 -67 -21 -75 -25 -8 -4
-40 -16 -70 -25 -104 -34 -309 -139 -340 -174 -3 -4 -40 -32 -83 -65 -44 -32
-87 -65 -96 -74 -9 -10 -46 -39 -82 -67 -35 -27 -67 -54 -71 -60 -4 -5 -8 -7
-8 -2 0 9 -17 -8 -105 -107 -38 -44 -86 -95 -105 -115 -19 -20 -49 -54 -67
-77 -17 -22 -55 -65 -84 -95 -28 -29 -79 -90 -113 -134 -71 -94 -69 -92 -99
-130 -38 -48 -111 -160 -108 -164 1 -2 -1 -7 -6 -10 -22 -15 -73 -105 -117
-206 -73 -168 -105 -232 -130 -262 -13 -16 -42 -59 -65 -98 -56 -94 -63 -106
-82 -127 -30 -35 -94 -175 -104 -229 -4 -19 -10 -40 -13 -46 -8 -12 -220 -171
-297 -223 -68 -46 -87 -67 -90 -101 -7 -95 135 -341 414 -714 74 -99 160 -209
191 -245 31 -36 94 -110 140 -165 46 -55 87 -102 90 -105 3 -3 30 -34 60 -70
30 -36 57 -67 60 -70 3 -3 35 -41 70 -85 35 -44 160 -177 276 -295 117 -118
232 -236 256 -261 217 -230 329 -338 488 -469 41 -34 85 -70 96 -80 57 -48
212 -160 222 -160 5 0 12 -4 14 -8 1 -4 44 -34 93 -67 50 -32 92 -61 95 -64 7
-8 219 -168 329 -249 84 -61 126 -87 286 -172 44 -24 105 -57 135 -73 50 -27
155 -81 585 -302 77 -39 183 -94 235 -122 80 -44 144 -72 275 -123 11 -4 22
-7 25 -6 3 0 18 -7 32 -16 35 -23 165 -75 237 -94 96 -27 342 -86 451 -109 8
-2 47 -10 85 -19 39 -9 81 -18 95 -20 14 -3 48 -9 75 -15 28 -5 68 -12 90 -15
23 -4 52 -9 65 -11 23 -5 185 -29 275 -40 22 -3 51 -8 65 -10 14 -2 59 -7 100
-10 81 -7 79 -6 280 -29 74 -9 167 -18 205 -22 39 -3 88 -7 110 -9 22 -2 141
-5 265 -5 195 -1 228 -4 245 -18 19 -16 19 -16 6 1 -13 16 -12 17 13 7 15 -5
25 -6 22 -2 -6 10 125 9 142 -2 6 -4 12 -3 12 2 0 11 40 10 59 -2 8 -6 12 -5
8 0 -3 6 51 10 134 11 76 1 158 4 182 7 23 3 65 8 92 11 77 9 101 13 265 46
25 5 81 13 126 19 44 6 89 12 100 14 10 2 39 7 64 12 51 9 59 11 63 14 2 2 18
5 59 13 15 3 32 8 38 12 5 3 18 8 27 10 10 2 83 26 163 53 80 27 159 53 175
56 17 4 64 20 105 36 41 16 118 45 171 64 149 55 759 350 759 367 0 5 3 8 8 7
4 -1 18 4 32 13 14 8 50 30 80 49 97 59 172 105 199 122 14 10 35 22 46 28 80
41 268 159 273 173 2 4 8 7 13 7 6 0 76 49 157 108 81 60 170 123 197 142 61
41 383 280 445 330 259 209 269 218 430 370 254 239 509 501 574 589 20 26
108 128 175 200 13 14 40 46 60 71 20 25 38 47 41 50 15 15 81 123 93 152 8
19 25 46 39 59 27 27 22 48 -23 90 -14 13 -42 49 -61 79 -49 77 -146 173 -305
305 -14 11 -35 29 -48 40 -110 93 -108 92 -325 239 -154 104 -223 163 -290
247 -19 24 -49 57 -66 74 -17 16 -38 42 -48 58 -18 26 -18 28 0 55 10 15 17
30 16 35 -1 4 1 6 5 6 18 -3 31 2 53 21 13 11 29 20 37 20 7 0 13 4 13 8 0 4
12 15 28 24 53 32 71 56 65 85 -12 65 -15 71 -121 228 -139 206 -178 251 -321
375 -35 30 -69 60 -75 65 -6 6 -32 27 -59 48 -44 36 -59 68 -38 81 5 3 12 23
16 43 5 21 10 45 13 53 13 45 4 228 -16 310 -5 19 -9 38 -10 43 -6 30 -15 64
-19 77 -4 8 -7 17 -7 20 -5 28 -31 90 -38 90 -4 0 -8 7 -8 15 0 8 -4 15 -9 15
-5 0 -7 8 -4 19 7 28 53 48 116 50 10 1 15 5 12 11 -3 6 1 7 10 4 8 -4 21 -1
29 5 7 6 15 8 18 5 4 -3 14 7 25 21 10 15 25 35 35 45 9 10 19 29 23 42 4 12
21 38 36 56 16 18 29 37 29 42 0 5 -36 -3 -80 -19 -83 -31 -120 -33 -200 -11
-133 36 -318 174 -379 283 -11 19 -31 72 -46 118 -39 125 -41 364 -3 469 3 8
14 51 24 95 10 44 20 87 22 95 2 8 5 71 7 140 3 121 -8 202 -36 255 -5 12 -11
27 -13 35 -3 17 -21 61 -43 107 -19 40 -20 65 -9 173 16 154 13 308 -8 400
-10 47 -23 88 -28 91 -5 3 -9 10 -9 15 2 13 -59 104 -69 104 -23 0 -10 124 21
181 4 9 11 29 14 45 12 68 17 91 24 124 10 50 2 252 -15 333 -2 12 -7 36 -10
52 -4 17 -7 36 -7 43 0 6 -4 12 -9 12 -4 0 -8 11 -8 24 0 13 -7 40 -15 60 -8
20 -12 36 -9 36 4 0 1 6 -5 13 -6 8 -12 22 -14 33 -4 20 -13 42 -42 109 -10
22 -19 42 -19 45 -1 3 -15 32 -30 65 -16 33 -30 62 -30 65 -3 12 -68 133 -91
170 -14 22 -23 40 -20 40 2 0 -11 30 -29 68 -19 37 -42 85 -51 107 -10 22 -37
82 -61 132 -24 51 -44 99 -44 108 0 8 -4 15 -10 15 -5 0 -10 9 -10 20 0 11 -4
28 -9 38 -32 59 -101 210 -101 220 0 8 -5 10 -12 6 -10 -6 -10 -5 -1 8 7 8 9
19 5 24 -4 4 1 2 11 -5 9 -7 17 -9 17 -4 0 9 47 22 143 40 40 7 125 48 172 83
93 70 148 200 147 355 0 92 -12 144 -46 200 l-24 40 32 45 c29 39 94 152 96
165 1 3 7 19 14 37 23 54 29 97 31 218 1 103 -9 167 -28 186 -4 4 -7 15 -7 25
0 9 -3 19 -7 21 -5 2 -20 28 -34 58 -26 53 -26 58 -12 100 8 25 18 54 23 65
11 24 59 192 66 231 3 15 7 31 9 34 26 43 22 525 -4 592 -9 21 -10 21 -11 3
-1 -11 -3 -29 -5 -39 -2 -11 -5 -38 -6 -60 -1 -23 -5 -45 -8 -51 -3 -5 -7 -19
-8 -29 -4 -25 -31 -103 -43 -127 -15 -27 -151 -193 -167 -202 -7 -4 -13 -14
-13 -21 0 -6 -15 -27 -34 -45 -28 -27 -37 -31 -53 -22 -10 6 -13 11 -6 11 7 0
10 6 7 14 -3 7 5 32 17 55 19 37 28 66 45 141 12 51 9 203 -4 208 -7 2 -10 7
-7 12 3 5 -1 14 -8 22 -7 7 -12 22 -11 34 1 11 -9 38 -22 60 -12 21 -32 57
-43 79 -20 39 -74 105 -86 105 -3 0 -17 10 -30 23 -14 12 -35 31 -48 43 -55
50 -313 187 -382 204 -2 1 -24 12 -47 25 -140 77 -232 117 -297 130 -47 9
-119 66 -261 206 -66 65 -150 182 -150 208 0 4 -11 29 -25 55 -13 25 -25 50
-26 54 -10 48 -38 107 -52 110 -47 9 -48 -224 -2 -333 7 -16 23 -54 35 -82 12
-29 26 -53 30 -53 3 0 7 -7 7 -15 0 -20 -55 -20 -132 1 -188 50 -193 51 -470
59 -93 3 -190 7 -215 9 -25 2 -106 7 -180 11 -74 3 -153 8 -175 11 -22 2 -67
6 -100 10 -63 6 -352 70 -395 87 -8 3 -35 11 -60 17 -43 11 -72 20 -115 36
-11 4 -22 8 -25 9 -3 1 -23 9 -45 19 -22 9 -49 21 -60 25 -75 32 -355 176
-355 183 0 4 -5 8 -11 8 -11 0 -171 107 -204 137 -44 40 -87 73 -95 73 -4 0
-10 -6 -13 -13z"/>
<path d="M8386 22 c-3 -5 1 -9 9 -9 8 0 12 4 9 9 -3 4 -7 8 -9 8 -2 0 -6 -4
-9 -8z"/>
</g>
</svg>
